<svg xmlns="http://www.w3.org/2000/svg"><g clip-path="url(#a)" filter="url(#b)"><path fill="#fff" d="M18 23h36v30H18z"/><path d="M16.542 58.644c.15.78-.314 1.518-1.094 1.682a1.385 1.385 0 0 1-1.64-1.094c-.15-.738.314-1.518 1.053-1.682a1.422 1.422 0 0 1 1.681 1.094zm19.565 9.762a2.024 2.024 0 0 0-.506 2.734c.629.903 1.832 1.135 2.734.506a1.977 1.977 0 0 0 .465-2.734c-.574-.889-1.791-1.135-2.693-.506zM24.349 5.2a1.608 1.608 0 0 0 1.217-1.914 1.527 1.527 0 0 0-1.873-1.244c-.862.191-1.409 1.052-1.245 1.914.192.902 1.04 1.449 1.9 1.244zM7.71 32.94a2.984 2.984 0 0 0-4.183.82c-.944 1.367-.588 3.281.779 4.225 1.367.97 3.24.629 4.183-.78a3.104 3.104 0 0 0-.779-4.265zM44.898 9.576c1.449-.862 1.873-2.735 1.052-4.143-.86-1.449-2.693-1.914-4.101-1.053-1.408.862-1.873 2.735-1.012 4.184a2.93 2.93 0 0 0 4.06 1.012zm-26.127 7.93c1.052-.739 1.285-2.188.588-3.24-.698-1.053-2.147-1.286-3.159-.589-1.052.739-1.285 2.188-.587 3.24.697 1.067 2.132 1.3 3.158.588zm50.9 21.328a1.937 1.937 0 0 0-1.45 2.31c.192 1.012 1.218 1.682 2.23 1.45 1.011-.192 1.681-1.218 1.449-2.27-.206-1.012-1.217-1.682-2.229-1.49zm5.428-7.766a1.385 1.385 0 0 0-1.64-1.094c-.78.15-1.245.944-1.094 1.723.15.738.902 1.244 1.681 1.094.738-.205 1.244-.944 1.053-1.723zM64.12 20.992c-1.176.82-1.449 2.42-.67 3.595.78 1.176 2.38 1.45 3.555.67 1.135-.82 1.408-2.42.629-3.595-.78-1.19-2.379-1.49-3.514-.67zM63.26 40.05c3.596 5.893 2.064 13.672-3.596 17.65a12.662 12.662 0 0 1-7.779 2.339c-1.64 6.44-9.488 8.832-14.37 4.457-.15.123-.355.232-.505.396-5.346 3.705-12.62 2.38-16.324-3.049a12.045 12.045 0 0 1-2.065-6.412c-8.941-1.49-12.304-12.851-5.619-19.1-3.869-6.412.082-14.683 7.301-15.708 3.432-9.051 14.71-13.344 22.367-7.41 9.215-3.05 18.635 4.019 17.897 13.822 5.619 1.722 7.218 9.146 2.693 13.015zm-9.57 10.159c-.424-2.817-5.592-.63-5.893-3.706-.424-4.374 5.975-13.822 5.469-17.5-.465-3.28-2.653-3.978-4.566-4.019-1.833-.041-2.311.273-2.926.629-.397.232-.903.67-1.6-.041-.861-.82-1.517-1.6-2.652-1.764-1.682-.273-2.42.274-3.637 1.326-.465.397-1.64 1.764-2.734 1.244-.465-.232-2.106-1.052-3.282-1.558-2.228-.97-5.468.629-6.644 2.734-1.764 3.131-5.195 15.463-5.701 17.104-1.176 3.636 1.49 6.644 5.045 6.44 1.517-.083 2.502-.63 3.472-2.38.547-1.011 5.701-14.724 6.098-15.394.273-.465 1.217-1.094 1.996-.697.78.423.943 1.285.82 2.064-.15 1.326-3.828 9.693-3.95 10.623-.466 3.13 3.677 3.637 5.277.547.505-.97 6.248-12.66 6.753-13.44.588-.86 1.012-1.134 1.6-1.093.424 0 1.135.123.97 1.49-.19 1.285-4.798 9.885-5.318 11.99-.629 2.817.903 5.66 3.405 6.918 1.558.78 8.545 2.147 7.998-1.517zm.779 12.619c-1.408 1.011-1.764 3.007-.78 4.457.971 1.449 2.926 1.79 4.376.82 1.449-1.012 1.79-3.008.82-4.457-1.012-1.45-2.967-1.846-4.416-.82z" fill="#F14141"/></g><defs><clipPath id="a"><path transform="translate(3 2)" d="M0 0h70v70H0z"/></clipPath><filter id="b" x="0" y="0" ><feFlood flood-opacity="0" /><feColorMatrix in="SourceAlpha" values="0 0 0 0 0 0 0 0 0 0 0 0 0 0 0 0 0 0 127 0"/><feOffset dy="1"/><feGaussianBlur stdDeviation="1.5"/><feColorMatrix values="0 0 0 0 0 0 0 0 0 0 0 0 0 0 0 0 0 0 0.25 0"/><feBlend in="SourceGraphic" in2="effect1_dropShadow"/></filter></defs></svg>