<svg id="Capa_1" data-name="Capa 1" xmlns="http://www.w3.org/2000/svg" viewBox="0 0 1094.59 705.38"><defs><style>.cls-1{fill:#e56034;}</style></defs><path class="cls-1" d="M662.12,65.22s4.9,83.1,18.52,100.27,24.1-10.2,22-13.81-10.48-101-10.48-101S660.67,46.45,662.12,65.22Z" transform="translate(-15.43 -8.75)"/><path class="cls-1" d="M768.64,140.42s-9.41,63.21,6.31,63.73,43.93-38.78,31.72-52.47S805.48,119.05,768.64,140.42Z" transform="translate(-15.43 -8.75)"/><path class="cls-1" d="M825.62,234.69c3-.65,17.44-4.55,27.92,0s-90.95,60.14-98.5,78.95-24.78,40.7-21,38,20.09-22.89,31.84-26,32.73-7.65,40.82-11.93,5.93-17.63,25.35-23,16.28-11,36.19-27.07,23.53-21.24,13.68-37S825.62,234.69,825.62,234.69Z" transform="translate(-15.43 -8.75)"/><path class="cls-1" d="M994,463.8c-19.92,14.23-25.92,33.93-38.78,43.05-36.69,26,27.09-3.72-3.13,63.84-12.41,27.73-22.93,60.88-26.16,79.6-5.83,33.72-9.23,37,12.55,31.17,14.71-3.94,43.52-16.6,60.4-40.18,23.28-32.5,12.28-60.49,8.83-105.8C1002.3,463.8,994,463.8,994,463.8Z" transform="translate(-15.43 -8.75)"/><path d="M839.34,706.24c22.65-5.55,45.24-11,67.8-16.62,10.49-2.59,21.09-4.92,31.38-8.16,24-7.54,42.87-22.87,60.4-40.18,7.24-7.14,7.35-15.58,5.84-27.25l-41.33,41-2.71-2.36c3.25-18.13,8.3-35.1,22-49.13,8.2-8.36,20.32-15.45,19.42-29.56-.58-9.17-3.38-18.19-5.18-27.28l-3.3-.39-23,40.28-3.37-1.33c7.26-26.55,14.58-53.08,21.75-79.66,2.62-9.73,6.3-19.47,7-29.37.73-11-3.2-11.59-14-10.93-6.15.37-13.7-3.73-18.79-8-11.28-9.47-24.63-10.77-38.1-12.43-1-.13-2.21,1.05-3.92,4.4l32.12,8.89c-.24,1.29-.49,2.59-.73,3.88-6.84-.33-13.72-.39-20.52-1.09-7.83-.79-11,1.21-12.07,10.18-2,16.67-6.52,33-10,49.54-.42,2-.75,4.51-2.09,5.63-4.58,3.81-9.59,7.11-14.44,10.61-2.7-4.26-5.28-8.62-8.14-12.77-6.9-10-14-19.93-20.91-29.93-4-5.74-11.72-9.66-8.49-19.09.46-1.33-4.54-4.54-5.79-7.75-2.65-3.73-5.43-7.38-7.9-11.22-2.73-4.22-4.68-9.05-7.92-12.79-2-2.31-5.79-3.07-8.78-4.52.89,2.8,1.38,5.81,2.76,8.35,2.3,4.24,5.15,8.19,9.28,14.6-7-.41-10.93-1.17-14.73-.73-4.16.48-8.18,2.07-12.26,3.18,2.85,2.6,5.33,6.73,8.63,7.55,25.15,6.28,38.42,25.92,51.84,46.49-7.86-2.3-15.78-4.45-23.59-6.94-13.6-4.33-27.58-7.89-40.57-13.64-11.17-4.94-16.15.43-21.23,8.39-10.56,16.56-20.94,33.24-31.92,49.51-8.19,12.15-12.87,12.83-26.78,8.75a85.85,85.85,0,0,1-34.39-19c-10.06-9.09-21.16-17-32-25.27-3.18-2.43-6.94-4.09-9.3-8,19.09-7.21,36.38-12.52,55.07-12.71-4.91,8.1-2,12.79,1.85,19.32,5,8.39,6.56,18.87,9.47,28.49a80.15,80.15,0,0,1,1.6,8.08l2.87.28c1-2.15,2.81-4.32,2.76-6.45-.23-9.25-4.41-20.27-.74-27.29,4.67-8.92-3.67-15.61.36-23.49,1.53-3-.58-8.65-2.59-12.22-.65-1.14-6.37.23-9.65,1-24.08,5.51-48.13,11.16-72.94,16.94,4.78-8.25,9.11-15.71,13.43-23.18l-3.73-2.6c-2.71,3-6.07,5.55-8,8.95-14.22,24.83-37.07,38.91-62.24,49.83-8,3.48-16.89,5.1-25.47,7.19-12.66,3.1-7.55,14.28-10.19,21.89-2.29,6.59,2.24,9,7.31,11.11,16.23,6.79,32.4,13.72,48.6,20.59l-1,2.69c-6-2.21-12-4.3-17.93-6.65-11-4.38-22-8.82-33-13.42-6-2.54-9.92-.7-14,4.27-21.22,26-48.66,37.1-81.42,29-11.64-2.87-22.18-11.22-32.5-18.14-6.72-4.5-2.61-9.9,2.11-13.13,9.24-6.31,19-11.85,28.46-17.84,4.74-3,9.29-6.3,15-10.2-3.3-2.5-4.91-4.15-6.85-5.12-13.33-6.72-26.74-13.26-40.09-19.92-6-3-11.27-5.62-12.81-14-.67-3.68-9.17-7-14.66-8.57-34.88-10.16-70.41-18.36-104.75-30-28.5-9.69-55.66-23.27-83.42-35.13.37-1,.74-2.1,1.12-3.15,7.79,2.27,16.47,3.05,23.23,7.07,36.81,21.85,77.82,31.76,118.33,43.31,18.94,5.39,37.68,11.52,56.37,17.76,5.54,1.85,8.8.8,13.5-2.92,7.89-6.23,17.33-10.48,26.06-15.66,3.23-1.91,6.31-4.09,9.88-6.41-1.91-1.82-2.72-3.17-3.34-3.09-21.61,2.75-41.46-7-59.05-15.09-34.31-15.87-69.27-22.57-106.25-24.71-17.18-1-34.23-5.17-51.19-8.61-2.72-.55-5.75-4.42-6.79-7.4a133.8,133.8,0,0,1-5.76-22.54c-1-6-3.26-9.07-9.3-6.69-11.67,4.58-23.94,8.35-34.44,14.9-5.41,3.36-9.9,11.66-10.77,18.26-4.75,36-7.92,72.26-12.36,108.33-1.39,11.34-5.32,22.34-7.58,33.6a223.31,223.31,0,0,0-4.15,27.75c-.84,11.81-.57,23.69-.84,35.54-.15,7.13,2.69,10.8,10.19,12.61,7.32,1.77,14,6.08,20.24,11.08-10.63-3-21.22-6.1-31.92-8.83-7.31-1.86-9.63-5.87-8.58-13.42,1.23-8.9,2.55-18.19,1.3-27-2.35-16.48,4.1-30.18,9.65-44.83,4.22-11.11,5.66-23.6,6.48-35.6,1.61-23.54,1.62-47.19,2.93-70.76.51-9.11,2.34-18.2,4.29-27.14,2.87-13.13,8.51-24.35,22.45-29.27,13.08-4.62,26-9.61,39.82-14.73Q216.28,377,217,367l25.11,6.53.41-1.58c-15.82-5.92-32.32-10.53-47.29-18.13-16.15-8.21-30.77-19.39-46.29-28.87a20.32,20.32,0,0,0-11.07-2.87c-17.88,1-35.37,4.24-53.43-2-30.47-10.55-51.74-29-60.16-60.81-2.85-10.78-6.4-21.43-8.37-32.37-1.72-9.58,1.39-12.67,10.63-9.84,20.41,6.26,40.45,13.75,60.64,20.75,2.49.86,5,1.75,8.58,3-.82-12.38-2.09-23.77-2.19-35.17a165.77,165.77,0,0,1,2.21-29.37c.47-2.76,5.86-6.92,8.64-6.66,20,1.85,36.58,10.15,50.84,25,14.8,15.37,21.84,33.26,23.4,53.77.43,5.59-1,11.43-2.2,17-2.09,9.63.23,16.74,10.19,20,10.94,3.54,21.94,6.88,35.11,11,2.76-15.71,5.17-30.22,7.9-44.67,2.06-10.94,3.42-22.2,7.07-32.63,6.69-19.13,23-24.93,42.18-16.36,10.47,4.67,14.81,2.23,14.75-9.51-.05-9.14-1.56-18.27-2.4-27.41-1.14-12.31,3.31-16,15.66-13.81,7.26,1.31,13.61,5.59,22.25.55,12.84-7.48,13.22-18.37,13-30.43-.06-3.72-.4-7.51.09-11.17,1.1-8.17,5.86-12.67,14.15-10.14a230.58,230.58,0,0,1,27.39,10.54c12.61,5.68,22.74-.57,23.55-14.62a252.07,252.07,0,0,1,2.91-26.3C414,47.8,430.94,41.57,448.54,56.19c4.69,3.89,9.79,7.72,13.24,12.61,7.76,11,17.92,10.43,28.58,6.84,3-1,5.74-4.46,7.5-7.45,8.09-13.75,15.65-27.82,23.69-41.6C527,17.33,533,7.9,545.49,8.81c12.29.89,20.43,8.36,25.39,19.41,5.69,12.68,11.33,25.39,17,38.06,1.81,4,3.42,8.21,5.78,11.9,6.39,10,12,11,22,4.25,15.69-10.66,31.92-20.65,46.86-32.27,18-14,45.16,1.66,47.49,24,2.14,20.56,3,41.26,4,61.91.54,11.19,4.32,14.23,14.88,10.16,13.92-5.35,27.51-11.65,41.64-16.31,6.91-2.28,14.76-2.62,22.13-2.35,11.88.44,22,9.41,21.61,21.23-.5,14.39-3.34,28.79-6.18,43-3.79,18.95,14.63,36.44,33.53,31.66a166.54,166.54,0,0,1,28.07-4.86c25.41-1.93,31,15.56,22.52,36.43-4.06,10-10.51,19.11-16.86,30.36,27.37,1.3,44,18,59.26,34.92,10.91,12.1,19.73,26.79,26.56,41.67,9,19.62,15.81,40.34,22.27,61,4.49,14.32,3.8,28.81,13.37,43.29,11.44,17.31,14.35,40.47,20,61.36,6.08,22.57,12.06,45.16,12.22,69,.06,9.81,3.9,19.1,2,29.76-1.61,8.81-4.45,15.42-10.82,20.83C990.4,672.47,956.46,689,918,696.35c-16.33,3.13-32.4,7.62-48.59,11.46C859.14,710.23,848.88,712.73,839.34,706.24ZM821.48,316.58c-15.68-5.74-30.47-2.45-43.89,6-17.47,10.95-34.7,22.39-51.22,34.71-23.48,17.51-24.3,12.39-11.51,43.36.39.94.46,2.2,1.13,2.81,2.51,2.26,5.21,4.31,7.83,6.44,1.9-2.45,4-4.8,5.67-7.38,2.12-3.19,4-6.58,5.93-9.92l15.7,19.24-10.61-3.87-2.91,1.9,6.88,14.39c-14.63-.18-2.63,7.56-2.77,11.57-10,3.94-3.47,9.36-1.19,14.4-13.9,5,.77,9.13-.85,13.29-3.35,3.38-6.91,7.16-7.06,11.07-.5,13.22,0,26.49.59,39.72.16,3.73,1.93,7.39,3,11.09,4.24-1.7,8.56-3.24,12.68-5.18,1.45-.68,2.49-2.28,3.61-3.56,36.25-41.63,66.41-87.07,81.71-140.57,6-21,10.11-43.93-13-59.71,1.88.71,4,1.09,5.6,2.17,17.44,11.73,24.63,33.8,18.29,55.77-3.46,12-1.35,21.54,7.88,24.42s12.63,9.44,15.62,16.91c8.57,21.39,16.75,42.93,25.35,64.31,1.72,4.28,4.62,8.09,7,12.12l3.22-1c.8-3.77,2.26-7.53,2.3-11.31.28-27.43.52-54.86.18-82.29-.09-6.66-.74-14.26-4-19.77-12.59-21.57-26-42.68-39.88-63.45-2.51-3.75-8.34-6.29-13.07-7.26s-9.83.74-14.76,1.36c-3.45.43-6.88,1-10.32,1.49l-5.62.83Zm-29.31-54.51-2.1,1.5c-1.4-3.69-4-7.4-3.93-11.07.12-7.7-.9-13-10.25-13.87-3.16-.29-6-4.17-10.89-7.86l22.69,2.1c-5.64-11.34-21.37-6.37-26.29-19.85l12.67,1,1.19-2.57-8.88-7.8,4.66-9.87,15.72-1.72-9.11-7.77c5.85-11,12-21.22,16.77-32,5.33-12,.44-18.83-12.06-15.91-12,2.81-23.67,7.71-35,12.83-5.3,2.41-9.4,7.48-15.59,12.62l-8.48-3.94c0,3.34-.06,5.59,0,7.84s.27,4.48.41,6.73l-2.19.49-8.82-12.19-9.87,7.35c-13.54-6.76-6.69-23.49-12.86-35-2.13-4,.22-10.32.59-16.92-6.33-3.53-4.31-9.27-.63-13.09-2.1-6.25-4.15-10.69-5-15.34-1.31-7-1.39-14.24-2.75-21.23-1.41-7.26-5.45-11.29-12.89-6.22C656,69.36,642.87,78.73,630,87.72L636.82,102c-4.82-1.08-7.08-1.2-9-2.11-2.21-1.05-4.1-2.79-6.51-4.51l-4,9.22L573.84,90.9l3.69-3.25q-1.44-7.52-2.9-15c-1.29-2.48.48-5.55,0-8.17-3.12-16.1-7.92-31.69-18.43-44.69C550,12.1,543.45,13,538.74,21.94c-4.9,9.28-9,19-14.07,28.18-3.59,6.54-6.15,12.49,2.69,18.82l-19.8,1.77c.1.94.2,1.87.31,2.81,14.82,1.54,29.65,3,44.46,4.66,7.08.81,13.94,2.3,16.85,11.83-7.36-.85-13.7-1.68-20-2.31-33.45-3.32-66.72-2.85-98.29,10-18.19,7.4-35.73,16.63-52.93,26.18-31.66,17.57-61.23,38.09-82.76,68-7.7,10.7-13.32,22.89-20.87,33.71-15.45,22.12-23.09,46.55-24.35,73.31-.26,5.51.19,9.08,5.9,12.29,17.41,9.77,25.21,36.7,14.72,53.58-6.17,9.92-1.58,15,4.85,20.37,8.33,7,17.05,13.51,25.57,20.26,32.73,25.92,67.89,47.43,107.93,60.27,19.82,6.36,40.65,7.47,60.65,11.74,24.93,5.34,47.68,2.82,71-4.36,10.7-3.3,17.33-17.23,13.08-27.8-2.55-6.35.23-10.41,5.42-13.61,19.27-11.87,40.41-16.68,62.5-13,7.05,1.18,14,7.52,19.28,13.14,4,4.27,5.2,11.14,7.65,16.87,16.3-8.11,19.92-16.08,17.15-32.1-3.35-19.32,4.44-40.8,21.79-51.24,5.76-3.47,11.61-7.49,15.93-12.53,22.69-26.49,55.81-34.56,85.47-48.51,5.48-2.58,6.9-3.33,5.13-8.78-.61-1.88.43-5.6,1.94-6.54,2-1.24,5.17-.86,7.79-.62,2.23.21,4.39,1.21,8.36,2.39l-3.81-10.82c14-14.93,27.6-29.17,48-34.13,2.55-.62,5.78-5.51,5.65-8.28-.16-3.37-2.81-8-5.72-9.51-3.54-1.86-8.65-2-12.78-1.26-14.35,2.64-28.57,6.06-42.86,9.06-7.53,1.59-12.57,4.62-10.42,13.74.54,2.31-.9,5.09-1.42,7.64l-3.11-.26c-.19-2.76.07-5.65-.69-8.24-.82-2.79-2.6-5.29-4-7.91-2.54,2.18-6.44,3.92-7.33,6.64C792.11,252,792.54,257.15,792.17,262.07Zm-707.37,22c.7-1.19,1.4-2.39,2.11-3.58C93,284.2,100,287,105.13,291.79c9.1,8.4,18.93,11.45,30.87,8.59A73.5,73.5,0,0,1,150,298c2.07-.09,6.19,2.49,6.05,3.17-1.87,9,5.43,11.74,10.76,13.81,25.27,9.83,50.81,19,76.4,27.93,4,1.39,8.68.6,14.82.9l3.77,7.86,9.65-12.29c.22,4.76.34,7.49.47,10.22l3.59.72c1.76-7.46,6.83-16.38,4.35-22-2.57-5.83-12.39-8.49-19.11-12.42-.79-.47-2-.16-3-.32-15.11-2.32-30.52-3.5-45.25-7.29-15.69-4.05-30.88-10.24-46-16.14-7.18-2.8-8.8-7.91-4.36-15.3,10.17-16.91,10-34.82,3.55-53.08C158,202,131.88,177.11,107.47,176.13c3.7,9.15,7.89,18.05,10.93,27.34,4.8,14.71,7.73,29.77,1.8,44.95-3.71,9.51-8.27,10.41-17.28,6.2Q72.5,240.39,41.48,227.48c-4.9-2-10.74-1.82-18.52-3,10,25.21,19.22,47.34,41.52,61.05L54,268.36l2.17-2.05C71,276,79.58,294.77,99.58,297.14Zm333.41,224.4c.4,1.32.81,2.64,1.21,4,8.52,1.79,17.1,3.32,25.54,5.41,15.12,3.74,30.38,7.13,45.15,12,10.83,3.56,11.81,9.25,2.8,16.74-14,11.66-29,22.14-43.54,33.23-1.72,1.31-3,3.26-4.43,4.91,2,1.51,4.19,4.43,6.11,4.28a97.33,97.33,0,0,0,20.89-3.47c6.5-2,12.5-5.56,18.72-8.43.32.52.63,1,.95,1.55l-12.89,11c24.89.22,33.52-22,50.8-33l-10.35,18.92c17.54-13.15,19.83-30.78,14.57-51.29,6.81,9.44,14.94,6,22.6,4,25-6.51,45.6-21.68,66.68-35.55,8-5.29,13.08-13.88,9.75-24.2l8.23-1.59c-.67-2.81-.81-5.9-2.14-8.35-1.79-3.32-4.49-6.15-6.8-9.19l1.68-1.68,10,7.06c.3-3.61-.58-6.79-2.67-8.34-12.1-9-25.68-13.74-40.94-12.47-8.74.73-13.71,4.88-15.69,14.24-5.25,24.87-17.93,45.1-40.28,58.39-9.15,5.44-16.33,6-25.25-3-27.17-27.52-58-23-84.19-8.88C428.51,498,423.66,503.83,418.21,508.49Zm512.3-130.64c13.71,19.36,26.92,38.17,40.39,56.8,1.29,1.79,4.22,2.4,6.38,3.56.89-2.35,2.74-4.81,2.49-7a62.78,62.78,0,0,0-3.51-15.68c-6.18-15.69-11.5-31.95-19.7-46.56-11-19.65-23.24-38.95-37.36-56.44-6.46-8-18.14-13.42-28.48-16.21-12.37-3.35-25.82-3-38.83-3.46-3-.11-6.09,2.86-9.14,4.42,2.68,1.45,5.27,4,8,4.18,15.75,1.25,27.94,8.76,36.09,21.69,7.52,11.94,13.83,24.7,20,37.43C912.17,371.51,922.42,379.82,930.51,377.85ZM236,291.16l1.79.7c5.94-7.07,13.09-13.46,17.58-21.36,9.82-17.27,18.42-35.25,27.12-53.13,1-2,.46-6.35-1.07-7.79-11.11-10.43-33.32-5.06-35.88,9.46C241.33,242.9,239.08,267.1,236,291.16Zm18.69,119c-2.76,3-4.95,5.51-7.21,7.92-4.24,4.53-2.68,7.65,2.78,8.34,17.14,2.14,34.33,3.84,51.52,5.59,1.06.11,2.24-.89,3.3-1.34-.26-.91-.25-1.39-.45-1.52-13.72-8.66-25-19.21-29.47-35.68-.35-1.27-8.74-2.37-9.51-1.14-3.3,5.33-7.74,5.32-13,5.67-3.25.21-6.36,2.59-12.32,5.23Zm202-337C449.79,66,444.44,58.85,437.6,53.69c-8.1-6.11-14.46-2.48-14.71,7.67-.18,7.72.44,15.46.9,23.17.09,1.57.59,3.62,1.67,4.53,6.28,5.25,29,2.33,38.72-6.08L448.8,81.72l-1.33-2.42Zm-71.56,46.28c-8.79-4.86-14.88-8.38-21.12-11.64-5.3-2.77-10.85-1.07-10.91,4.42-.09,7.15,2.77,14.38,4.87,21.43.17.58,4.72.83,6.38-.18C370.86,129.56,377,125.06,385.16,119.46ZM717.39,428.55l-7.54-13.26c6.27-6.85,2-22.63-8.46-31.2C692.17,398.61,698.45,424.48,717.39,428.55ZM302.44,151.68c-3,4.61-6.26,7.5-5.74,9.28,1.83,6.32,5,12.25,7.59,18.33l16.19-12.07Zm308.78,275.2c11,5.48,19.82,10.1,28.86,14.26,3.08,1.42,6.67,1.73,10,2.55-1.08-3.89-.91-9.31-3.47-11.39C636.62,424.13,624.87,423.56,611.22,426.88Z" transform="translate(-15.43 -8.75)"/><path d="M203.71,664.06c2.68-1.3,5.28-3.76,7.39-3.4,16.29,2.78,33.13,4.24,48.57,9.63,38.92,13.58,78.29,21,119.77,20.46,60.86-.76,121.78-.29,182.6,1.93,49.56,1.81,99,6.85,148.48,10.66,16.79,1.29,33.54,3.2,53.85,5.18-26.3-25-47.16-50.42-58.75-82.69,7.77,4.25,15.29,9.08,23.37,12.62,14.3,6.27,29.73,10.35,43.23,17.94,15.52,8.72,29.75,19.85,43.9,30.77,5.18,4,8.52,10.39,13.75,17-18.16-14.25-34.1-29.91-52.87-40.61s-40.14-16.27-62.87-25.07c16.71,29.38,38,51.93,61,73.19-.52.81-1,1.62-1.57,2.43C723.27,710.69,673,706.91,622.74,704c-19.65-1.13-39.42-.09-59.14-.41-65.78-1.06-131.59-1.71-197.35-3.79-23-.72-46-4.28-68.72-8.26-11-1.93-21.06-8.65-31.95-11.76C245.8,674.14,225.72,669.58,203.71,664.06Z" transform="translate(-15.43 -8.75)"/><path d="M1022.44,656.89c2-1.32,3.94-2.66,6-3.94,17.34-11,18.35-26.81,13.42-44.66-2-7.33-3-15-5-25.1,6.44,3.08,10.54,4.48,14,6.81,15.37,10.31,32.09,17.34,49.91,22.19,3.45.93,6.19,4.47,9.25,6.81-2.54,2.91-4.51,7.12-7.71,8.54-25.64,11.32-51.51,22.12-77.3,33.07Z" transform="translate(-15.43 -8.75)"/><path d="M802.41,611.77c2.33-1,4.61-2.65,7-2.85,18-1.48,31.05-12.35,44.85-22.29,11-7.92,23-14.38,34.25-22,4-2.76,9.31-6.68,10-10.77,2.63-15.12,14.17-21.5,25.05-29,16.67-11.42,34.86-21,46.59-38.51-5.35,14.86-16.39,24.89-28.64,33.7-7.7,5.55-16,10.22-23.92,15.53-7.59,5.12-13.17,11.46-13.53,21.49-.1,2.77-2.52,6.34-4.93,8-19.36,13.2-39,25.94-58.5,39C829.19,611.77,816.64,614.71,802.41,611.77Z" transform="translate(-15.43 -8.75)"/><path d="M582.29,312.72c-.49,4.28-1.81,8.65-1.34,12.82,1.72,15.32,2.95,30.49-4.49,44.81-7.84,15.07-20.51,23.88-37.19,24.8-16.22.89-25.23-10.27-33.44-22.82C494.21,354.57,492,336.21,497.54,316c8.59-31.4,50.81-39.64,69.05-20.65,5.54,5.76,12.34,10.32,18.56,15.43Zm-6.95,17.8c-3.94-9-7.07-18.56-12.06-27-4.16-7-11.56-8.89-19.7-6.05-8.36,2.92-13.7,9.1-12.71,17.48a88.16,88.16,0,0,0,7.89,27.74c4.11,8.45,11.78,14.92,22.38,11.4S572.62,341,575.34,330.52Z" transform="translate(-15.43 -8.75)"/><path d="M407.13,303.21c-2.91,10.2-4.51,20.76-8.87,30-8.89,18.82-28.52,22.59-45,9.79-18.81-14.62-25.42-44.79-18.3-67.4,4.15-13.18,9.55-21.62,22.91-25.73,20.36-6.25,31.66-2.35,39.72,17.55C402.1,278.56,403.92,290.78,407.13,303.21Zm-6.62-9.75c-3.51-9.13-5.58-16.65-9.27-23.26-1.81-3.22-7.05-7-10-6.5A18.23,18.23,0,0,0,369.81,272c-5.32,9.94-3,20.33,4.2,28.24,3.38,3.73,10.85,6.69,15.39,5.58C393.75,304.76,396.72,298,400.51,293.46Z" transform="translate(-15.43 -8.75)"/><path d="M483.17,398.79c-6.43,12.77-11.56,25.3-18.67,36.58-9.64,15.29-27.2,18.27-39.88,5.37C414.94,430.9,408,418,401.54,405.5c-4.45-8.57-6-18.67-8.79-28.09-1.91-6.37.43-8.31,6.63-6.46,5.2,1.56,10.53,2.69,15.66,4.43C436.83,382.77,458.55,390.32,483.17,398.79Zm-26.75,32.34c-14.28-5.74-26.76-11.36-27.95-28.62-.16-2.46-10.18-4.24-15.64-6.34-.17,4.4-1.69,9.33-.2,13.06a66.53,66.53,0,0,0,10.88,18.19C432.11,437.54,445.8,439.25,456.42,431.13Z" transform="translate(-15.43 -8.75)"/></svg>